<?xml version="1.0" standalone="no"?>
<!DOCTYPE svg PUBLIC "-//W3C//DTD SVG 20010904//EN"
 "http://www.w3.org/TR/2001/REC-SVG-20010904/DTD/svg10.dtd">
<svg version="1.0" xmlns="http://www.w3.org/2000/svg"
 width="539.000000pt" height="539.000000pt" viewBox="0 0 539.000000 539.000000"
 preserveAspectRatio="xMidYMid meet">
<metadata>
Created by potrace 1.14, written by Peter Selinger 2001-2017
</metadata>
<g transform="translate(0.000000,539.000000) scale(0.100000,-0.100000)"
fill="#000000" stroke="none">
<path d="M958 3865 c-3 -3 -161 -7 -351 -8 -190 -1 -348 -5 -352 -8 -3 -4 12
-47 33 -95 40 -89 58 -145 86 -259 24 -100 43 -135 70 -135 14 0 32 8 41 17
15 15 17 38 13 205 l-4 188 198 0 c230 0 221 4 216 -107 -3 -66 -3 -67 -44
-92 -22 -14 -67 -44 -100 -66 -32 -22 -93 -56 -134 -76 -41 -20 -91 -53 -110
-73 l-34 -36 -8 -158 c-4 -86 -7 -415 -5 -730 2 -490 4 -574 17 -582 12 -7 9
-15 -17 -47 -40 -51 -87 -145 -109 -219 -9 -32 -24 -75 -32 -94 -27 -63 -31
-74 -51 -135 -11 -33 -17 -63 -15 -67 3 -5 169 -8 370 -8 357 0 364 0 364 -20
0 -20 7 -20 288 -20 281 0 371 8 539 46 113 25 231 95 335 197 52 51 77 86
113 159 40 81 47 106 57 200 16 142 0 267 -51 396 -32 82 -45 101 -116 175
-44 46 -113 105 -152 131 -40 26 -73 51 -73 54 0 4 17 17 38 30 41 25 101 80
169 155 110 119 149 333 103 557 -27 130 -67 208 -154 295 -58 59 -90 81 -177
124 -198 96 -289 111 -675 111 -154 0 -283 -2 -286 -5z m735 -385 c79 -38 96
-48 129 -84 67 -71 91 -187 76 -361 -12 -136 -52 -206 -155 -274 -56 -38 -81
-38 -161 -6 -60 24 -67 25 -321 25 l-259 0 -43 -32 c-68 -53 -81 -77 -87 -162
-5 -89 14 -138 78 -201 l41 -40 292 0 292 0 69 34 68 34 45 -24 c68 -37 127
-99 163 -172 68 -138 59 -343 -21 -467 -40 -62 -66 -84 -135 -115 -53 -24 -64
-26 -109 -16 -27 6 -178 12 -334 14 l-283 4 -24 29 c-14 16 -36 46 -50 67 -13
20 -47 53 -74 73 l-50 36 0 626 c-1 345 -3 679 -6 743 -5 90 -2 123 9 151 27
64 39 66 367 70 273 3 298 5 340 24 25 11 51 28 59 37 17 21 10 22 84 -13z
m-1001 -1807 c27 -24 55 -43 62 -43 6 0 38 -25 70 -55 31 -30 60 -55 64 -55 9
-1 52 -37 52 -44 0 -3 -17 -6 -37 -7 l-38 -1 44 -12 c32 -8 50 -20 63 -41 10
-17 18 -33 18 -37 0 -5 -113 -8 -250 -8 l-250 0 5 129 c7 140 25 229 51 248
21 15 70 -10 146 -74z"/>
<path d="M2322 3673 l3 -198 188 -3 c103 -1 188 -3 188 -5 1 -1 5 -333 9 -737
6 -606 10 -745 23 -792 40 -149 65 -203 135 -280 54 -60 169 -149 232 -180 66
-32 254 -82 365 -97 44 -6 116 -15 160 -22 76 -10 339 -7 490 7 217 20 456 86
555 154 91 61 185 155 219 220 41 76 75 191 95 318 14 85 16 222 16 956 l0
856 -316 0 c-281 0 -319 -2 -345 -17 l-29 -17 0 -777 c0 -842 0 -851 -56
-1019 -27 -78 -46 -102 -131 -160 -179 -122 -552 -69 -657 93 -8 12 -25 56
-38 97 l-23 75 -5 860 -5 860 -538 3 -537 2 2 -197z"/>
</g>
</svg>
